<svg width="365.2000244140625px" height="10.00001220703123px" xmlns="http://www.w3.org/2000/svg" viewBox="67.39998779296874 -21.000006103515616 365.2000244140625 192.00001220703123" style="background: rgba(255, 68, 0, 0);" preserveAspectRatio="xMidYMid"><defs><filter id="editing-hole" x="-100%" y="-100%" width="300%" height="300%"><feFlood flood-color="#fffdfd" result="black"></feFlood><feMorphology operator="dilate" radius="2" in="SourceGraphic" result="erode"></feMorphology><feGaussianBlur in="erode" stdDeviation="4" result="blur"></feGaussianBlur><feOffset in="blur" dx="2" dy="2" result="offset"></feOffset><feComposite operator="atop" in="offset" in2="black" result="merge"></feComposite><feComposite operator="in" in="merge" in2="SourceGraphic" result="inner-shadow"></feComposite></filter></defs><g filter="url(#editing-hole)"><g transform="translate(124.71939849853516, 118.99999618530273)"><path d="M-1.66 26.24L-1.66 26.24Q-2.62 26.24-2.75 24.96L-2.75 24.96L-2.75 24.96Q-0.83 17.66 0.58 10.37L0.58 10.37L2.50 0.32L4.42-9.73L4.93-12.42L4.93-12.42Q7.49-25.73 8.38-30.21L8.38-30.21L8.38-31.62L8.38-31.62Q8.38-32.26 8.96-32.83L8.96-32.83L8.96-32.83Q9.54-33.41 10.30-33.41L10.30-33.41L10.30-33.41Q11.01-33.41 11.39-32.86L11.39-32.86L11.39-32.86Q11.78-32.32 11.78-31.68L11.78-31.68L11.78-31.68Q11.78-30.78 11.46-29.82L11.46-29.82L11.20-28.99L11.20-28.99Q11.07-28.48 11.07-28.29L11.07-28.29L10.18-23.68L10.18-23.68Q14.78-32.45 20.03-32.45L20.03-32.45L20.03-32.45Q22.78-32.45 24.03-30.82L24.03-30.82L24.03-30.82Q25.28-29.18 25.28-25.92L25.28-25.92L25.28-25.92Q25.28-19.78 23.55-13.70L23.55-13.70L23.55-13.70Q21.82-7.62 18.56-3.46L18.56-3.46L18.56-3.46Q15.23 0.83 10.62 0.83L10.62 0.83L10.62 0.83Q8.83 0.83 7.78 0.10L7.78 0.10L7.78 0.10Q6.72-0.64 6.08-2.43L6.08-2.43L5.31 1.34L5.31 1.34Q3.78 8.38 3.07 11.97L3.07 11.97L3.07 11.97Q1.54 19.78 0.13 24.96L0.13 24.96L0.13 24.96Q-0.45 26.24-1.66 26.24L-1.66 26.24ZM11.07-2.18L11.07-2.18Q14.40-2.18 17.28-6.40L17.28-6.40L17.28-6.40Q20.86-11.84 22.02-20.67L22.02-20.67L22.02-20.67Q22.34-23.42 22.34-25.41L22.34-25.41L22.34-25.41Q22.34-29.57 20.29-29.57L20.29-29.57L20.29-29.57Q18.24-29.57 15.62-26.62L15.62-26.62L15.62-26.62Q12.03-22.59 9.73-16.93L9.73-16.93L9.73-16.93Q7.42-11.26 7.42-7.10L7.42-7.10L7.42-7.10Q7.42-2.18 11.07-2.18L11.07-2.18ZM34.94 0.19L34.94 0.19Q33.34 0.19 33.15-1.15L33.15-1.15L33.15-1.15Q32.06-8.51 31.36-15.68L31.36-15.68L31.36-15.68Q30.34-24.32 29.38-31.62L29.38-31.62L29.38-31.62Q29.57-32.19 30.11-32.67L30.11-32.67L30.11-32.67Q30.66-33.15 31.10-33.15L31.10-33.15L31.10-33.15Q32-33.15 32.32-32.06L32.32-32.06L32.32-32.06Q33.02-25.41 33.86-18.94L33.86-18.94L33.86-18.94Q34.62-13.50 35.65-4.48L35.65-4.48L35.65-4.48Q40.83-12.61 43.39-18.94L43.39-18.94L43.39-18.94Q45.95-25.28 45.95-31.62L45.95-31.62L45.95-31.62Q45.95-38.34 41.98-39.87L41.98-39.87L41.98-39.87Q40.83-40.32 39.94-40.38L39.94-40.38L39.94-40.38Q38.98-40.51 38.62-40.74L38.62-40.74L38.62-40.74Q38.27-40.96 38.27-41.47L38.27-41.47L38.27-41.47Q38.27-42.82 40.06-43.07L40.06-43.07L40.06-43.07Q48.96-42.43 48.96-32.13L48.96-32.13L48.96-32.13Q48.96-21.82 41.92-9.15L41.92-9.15L41.92-9.15Q39.55-4.86 36.67-1.09L36.67-1.09L36.67-1.09Q35.71 0.19 34.94 0.19L34.94 0.19ZM46.98 26.24L46.98 26.24Q46.02 26.24 45.89 24.96L45.89 24.96L45.89 24.96Q47.81 17.66 49.22 10.37L49.22 10.37L51.14 0.32L53.06-9.73L53.57-12.42L53.57-12.42Q56.13-25.73 57.02-30.21L57.02-30.21L57.02-31.62L57.02-31.62Q57.02-32.26 57.60-32.83L57.60-32.83L57.60-32.83Q58.18-33.41 58.94-33.41L58.94-33.41L58.94-33.41Q59.65-33.41 60.03-32.86L60.03-32.86L60.03-32.86Q60.42-32.32 60.42-31.68L60.42-31.68L60.42-31.68Q60.42-30.78 60.10-29.82L60.10-29.82L59.84-28.99L59.84-28.99Q59.71-28.48 59.71-28.29L59.71-28.29L58.82-23.68L58.82-23.68Q63.42-32.45 68.67-32.45L68.67-32.45L68.67-32.45Q71.42-32.45 72.67-30.82L72.67-30.82L72.67-30.82Q73.92-29.18 73.92-25.92L73.92-25.92L73.92-25.92Q73.92-19.78 72.19-13.70L72.19-13.70L72.19-13.70Q70.46-7.62 67.20-3.46L67.20-3.46L67.20-3.46Q63.87 0.83 59.26 0.83L59.26 0.83L59.26 0.83Q57.47 0.83 56.42 0.10L56.42 0.10L56.42 0.10Q55.36-0.64 54.72-2.43L54.72-2.43L53.95 1.34L53.95 1.34Q52.42 8.38 51.71 11.97L51.71 11.97L51.71 11.97Q50.18 19.78 48.77 24.96L48.77 24.96L48.77 24.96Q48.19 26.24 46.98 26.24L46.98 26.24ZM59.71-2.18L59.71-2.18Q63.04-2.18 65.92-6.40L65.92-6.40L65.92-6.40Q69.50-11.84 70.66-20.67L70.66-20.67L70.66-20.67Q70.98-23.42 70.98-25.41L70.98-25.41L70.98-25.41Q70.98-29.57 68.93-29.57L68.93-29.57L68.93-29.57Q66.88-29.57 64.26-26.62L64.26-26.62L64.26-26.62Q60.67-22.59 58.37-16.93L58.37-16.93L58.37-16.93Q56.06-11.26 56.06-7.10L56.06-7.10L56.06-7.10Q56.06-2.18 59.71-2.18L59.71-2.18ZM95.87 0.77L95.87 0.77Q95.10 0.77 94.59 0.48L94.59 0.48L94.59 0.48Q94.08 0.19 94.08-0.13L94.08-0.13L94.08-0.13Q94.08-2.37 97.02-14.34L97.02-14.34L97.79-17.66L97.79-17.66Q101.12-31.68 102.75-39.04L102.75-39.04L102.75-39.04Q104.38-46.40 105.47-52.74L105.47-52.74L105.79-54.59L105.79-54.59Q106.37-58.43 106.78-60.06L106.78-60.06L106.78-60.06Q107.20-61.70 107.84-61.70L107.84-61.70L107.84-61.70Q109.89-61.70 109.89-59.58L109.89-59.58L109.89-59.58Q109.89-58.94 109.18-55.30L109.18-55.30L109.18-55.30Q108.86-53.76 107.71-48.32L107.71-48.32L107.71-48.32Q106.94-44.22 105.66-38.78L105.66-38.78L103.74-29.89L103.74-29.89Q106.30-32.64 108.93-32.64L108.93-32.64L108.93-32.64Q111.30-32.64 112.35-31.01L112.35-31.01L112.35-31.01Q113.41-29.38 113.41-27.07L113.41-27.07L113.41-27.07Q113.41-23.49 110.88-20.64L110.88-20.64L110.88-20.64Q108.35-17.79 102.72-14.40L102.72-14.40L102.72-14.40Q103.30-11.26 104.96-8.48L104.96-8.48L104.96-8.48Q106.62-5.70 108.86-4.03L108.86-4.03L108.86-4.03Q111.10-2.37 113.28-2.37L113.28-2.37L113.28-2.37Q114.69-2.37 115.23-3.17L115.23-3.17L115.23-3.17Q115.78-3.97 116.22-5.38L116.22-5.38L116.22-5.38Q116.61-6.27 117.25-6.27L117.25-6.27L117.25-6.27Q118.91-6.27 118.91-4.16L118.91-4.16L118.91-4.16Q118.91-2.88 117.82-1.73L117.82-1.73L117.82-1.73Q115.71 0.64 113.54 0.64L113.54 0.64L113.54 0.64Q110.08 0.64 107.23-1.57L107.23-1.57L107.23-1.57Q104.38-3.78 102.46-7.36L102.46-7.36L102.46-7.36Q101.12-9.79 100.54-13.12L100.54-13.12L100.10-12.80L100.10-12.80Q99.90-10.88 98.69-6.53L98.69-6.53L97.34-0.83L97.34-0.83Q97.09 0.77 95.87 0.77L95.87 0.77ZM100.42-15.74L100.42-15.74Q100.74-16.06 101.57-16.51L101.57-16.51L101.57-16.51Q105.79-19.14 108.22-21.89L108.22-21.89L108.22-21.89Q110.14-24.13 110.14-26.88L110.14-26.88L110.14-26.88Q110.14-29.70 108.22-29.70L108.22-29.70L108.22-29.70Q105.73-29.70 104-27.49L104-27.49L104-27.49Q102.27-25.28 101.44-20.93L101.44-20.93L101.44-20.93Q101.44-20.67 101.34-20.32L101.34-20.32L101.34-20.32Q101.25-19.97 101.18-19.52L101.18-19.52L101.18-19.52Q101.25-19.84 100.42-15.74L100.42-15.74ZM124.10 0.64L124.10 0.64Q121.92 0.64 121.92-2.88L121.92-2.88L121.92-2.88Q121.92-3.78 122.24-4.48L122.24-4.48L122.24-4.48Q122.56-5.57 122.82-6.98L122.82-6.98L123.78-11.26L125.06-16.90L125.06-16.90Q125.70-20.03 126.59-23.94L126.59-23.94L126.59-23.94Q126.72-24.32 126.85-25.22L126.85-25.22L126.85-25.22Q127.49-27.97 127.49-28.42L127.49-28.42L127.49-29.06L127.49-29.06Q127.49-29.57 127.04-31.17L127.04-31.17L127.04-31.17Q127.04-31.94 127.58-32.58L127.58-32.58L127.58-32.58Q128.13-33.22 128.90-33.22L128.90-33.22L128.90-33.22Q129.60-33.22 130.11-32.26L130.11-32.26L130.11-32.26Q130.62-31.30 130.62-30.14L130.62-30.14L130.62-30.14Q130.62-28.86 127.68-16.32L127.68-16.32L127.68-16.32Q124.74-3.78 124.74-3.01L124.74-3.01L124.74-3.01Q124.74-2.30 125.38-2.30L125.38-2.30L125.38-2.30Q125.70-2.30 126.53-3.14L126.53-3.14L126.53-3.14Q127.30-3.90 127.81-3.90L127.81-3.90L127.81-3.90Q128.83-3.90 128.83-2.62L128.83-2.62L128.83-2.62Q128.83-1.86 127.94-1.09L127.94-1.09L127.94-1.09Q127.04-0.32 125.89 0.16L125.89 0.16L125.89 0.16Q124.74 0.64 124.10 0.64L124.10 0.64ZM130.56-38.02L130.56-38.02Q129.54-38.02 129.02-38.27L129.02-38.27L128.77-38.27L128.77-38.27Q126.91-38.27 126.91-40.45L126.91-40.45L126.91-40.45Q126.91-41.54 127.84-42.43L127.84-42.43L127.84-42.43Q128.77-43.33 129.86-43.33L129.86-43.33L129.86-43.33Q130.94-43.33 131.90-42.56L131.90-42.56L131.90-42.56Q132.99-41.47 132.99-40.45L132.99-40.45L132.99-40.45Q132.99-39.49 132.26-38.75L132.26-38.75L132.26-38.75Q131.52-38.02 130.56-38.02L130.56-38.02ZM135.55-4.74L135.55-4.74Q135.55-5.57 136-5.89L136-5.89L136-5.89Q136.45-6.21 137.15-6.34L137.15-6.34L137.15-6.34Q137.73-6.34 138.08-5.95L138.08-5.95L138.08-5.95Q138.43-5.57 138.94-4.74L138.94-4.74L138.94-4.74Q139.46-3.84 139.81-3.49L139.81-3.49L139.81-3.49Q140.16-3.14 141.06-3.14L141.06-3.14L141.06-3.14Q143.10-3.14 144.42-4.42L144.42-4.42L144.42-4.42Q145.73-5.70 145.73-7.42L145.73-7.42L145.73-7.42Q145.73-9.28 144.96-11.33L144.96-11.33L144.96-11.33Q144.19-13.38 142.59-16.45L142.59-16.45L142.59-16.45Q139.39-22.21 139.39-25.60L139.39-25.60L139.39-25.60Q139.39-28.99 141.09-31.04L141.09-31.04L141.09-31.04Q142.78-33.09 145.73-33.09L145.73-33.09L145.73-33.09Q147.78-33.09 149.63-31.94L149.63-31.94L149.63-31.94Q151.49-30.78 151.49-29.06L151.49-29.06L151.49-29.06Q151.49-27.20 149.95-27.20L149.95-27.20L149.95-27.20Q149.50-27.20 149.22-27.46L149.22-27.46L149.22-27.46Q148.93-27.71 148.67-28.06L148.67-28.06L148.67-28.06Q148.42-28.42 148.29-28.54L148.29-28.54L148.29-28.54Q147.14-29.89 145.73-29.89L145.73-29.89L145.73-29.89Q142.59-29.89 142.59-26.24L142.59-26.24L142.59-26.24Q142.59-24.26 143.36-22.21L143.36-22.21L143.36-22.21Q144.13-20.16 145.66-17.02L145.66-17.02L145.66-17.02Q147.14-13.95 147.90-11.90L147.90-11.90L147.90-11.90Q148.67-9.86 148.67-8L148.67-8L148.67-8Q148.67-4.74 146.69-2.50L146.69-2.50L146.69-2.50Q144.70-0.26 141.12 0.19L141.12 0.19L141.12 0.19Q138.88 0.19 137.22-1.38L137.22-1.38L137.22-1.38Q135.55-2.94 135.55-4.74L135.55-4.74ZM157.06 0.51L157.06 0.51Q155.97 0.51 155.97-0.58L155.97-0.58L155.97-0.58Q155.97-1.47 162.24-30.34L162.24-30.34L162.24-30.34Q164.03-38.98 165.79-47.84L165.79-47.84L165.79-47.84Q167.55-56.70 168.38-60.80L168.38-60.80L168.38-60.80Q168.70-61.76 169.47-61.76L169.47-61.76L169.47-61.76Q171.14-61.76 171.52-60.16L171.52-60.16L171.52-60.16Q170.62-55.55 168.64-45.98L168.64-45.98L168.64-45.98Q166.66-36.42 165.25-29.76L165.25-29.76L162.82-18.56L162.82-18.56Q169.34-32 175.17-32L175.17-32L175.17-32Q177.41-32 178.62-30.24L178.62-30.24L178.62-30.24Q179.84-28.48 179.84-26.05L179.84-26.05L179.84-26.05Q179.84-23.68 179.01-19.78L179.01-19.78L177.98-14.40L177.98-14.40Q176.19-5.12 176.19-3.84L176.19-3.84L176.32-1.34L176.32-1.34Q176.32-0.51 175.78-0.03L175.78-0.03L175.78-0.03Q175.23 0.45 174.34 0.45L174.34 0.45L174.34 0.45Q173.50 0.45 173.06-0.10L173.06-0.10L173.06-0.10Q172.61-0.64 172.61-1.60L172.61-1.60L172.61-1.60Q172.61-2.18 172.67-2.50L172.67-2.50L176.38-23.30L176.38-23.30Q176.58-24.26 176.58-25.60L176.58-25.60L176.58-25.60Q176.58-28.80 174.78-28.80L174.78-28.80L174.78-28.80Q172.74-28.80 169.92-25.25L169.92-25.25L169.92-25.25Q167.10-21.70 164.64-17.22L164.64-17.22L164.64-17.22Q162.18-12.74 161.54-10.82L161.54-10.82L161.54-10.82Q160.77-8.51 160.06-5.66L160.06-5.66L160.06-5.66Q159.36-2.82 159.36-2.05L159.36-2.05L159.36-2.05Q159.42-0.45 159.04 0.03L159.04 0.03L159.04 0.03Q158.66 0.51 157.06 0.51L157.06 0.51ZM191.87 0.58L191.87 0.58Q188.54 0.58 186.91-2.05L186.91-2.05L186.91-2.05Q185.28-4.67 185.28-8.32L185.28-8.32L185.28-8.32Q185.28-14.14 187.23-19.62L187.23-19.62L187.23-19.62Q189.18-25.09 192.58-28.67L192.58-28.67L192.58-28.67Q195.84-32.32 199.94-32.32L199.94-32.32L199.94-32.32Q205.82-32.32 205.82-23.36L205.82-23.36L205.82-23.36Q205.82-18.88 204.35-14.21L204.35-14.21L204.35-14.21Q202.88-9.54 200.54-5.89L200.54-5.89L200.54-5.89Q198.21-2.24 195.71-0.64L195.71-0.64L195.71-0.64Q193.79 0.58 191.87 0.58L191.87 0.58ZM192.38-2.30L192.38-2.30Q194.37-2.30 196.83-5.76L196.83-5.76L196.83-5.76Q199.30-9.22 200.96-14.34L200.96-14.34L200.96-14.34Q202.69-19.46 202.69-23.04L202.69-23.04L202.69-23.04Q202.69-26.75 202.24-27.65L202.24-27.65L202.24-27.65Q201.86-28.61 201.28-28.99L201.28-28.99L201.28-28.99Q200.70-29.38 199.49-29.38L199.49-29.38L199.49-29.38Q198.14-29.38 196.67-28.35L196.67-28.35L196.67-28.35Q193.73-26.50 191.55-21.95L191.55-21.95L191.55-21.95Q188.16-15.17 188.16-8.77L188.16-8.77L188.16-8.77Q188.16-4.42 190.66-2.75L190.66-2.75L190.66-2.75Q191.55-2.30 192.38-2.30L192.38-2.30ZM211.20 1.02L211.20 1.02Q210.30 1.02 210.30-0.13L210.30-0.13L211.78-7.74L214.46-21.25L214.46-21.25Q216.26-30.21 216.26-30.21L216.26-30.21L216.26-30.21Q216.51-31.62 216.96-32.26L216.96-32.26L216.96-32.26Q217.41-32.90 218.11-32.90L218.11-32.90L218.11-32.90Q218.75-32.90 219.10-32.58L219.10-32.58L219.10-32.58Q219.46-32.26 219.46-31.42L219.46-31.42L219.46-31.42Q219.46-29.95 218.56-26.94L218.56-26.94L218.56-26.94Q218.11-25.47 217.92-24.45L217.92-24.45L217.92-24.45Q217.66-23.55 217.34-22.43L217.34-22.43L217.34-22.43Q217.02-21.31 216.64-19.84L216.64-19.84L216.64-19.84Q218.37-23.74 219.90-26.08L219.90-26.08L219.90-26.08Q221.44-28.42 223.74-30.53L223.74-30.53L223.74-30.53Q225.92-32.38 228.10-32.38L228.10-32.38L228.10-32.38Q229.70-32.38 230.78-31.71L230.78-31.71L230.78-31.71Q231.87-31.04 231.87-30.14L231.87-30.14L231.87-30.14Q231.87-29.44 231.36-29.02L231.36-29.02L231.36-29.02Q230.85-28.61 230.08-28.61L230.08-28.61L230.08-28.61Q229.50-28.61 228.99-28.86L228.99-28.86L228.99-28.86Q228.61-29.18 227.97-29.18L227.97-29.18L227.97-29.18Q227.14-29.18 225.54-28.03L225.54-28.03L225.54-28.03Q222.53-25.86 220.45-22.30L220.45-22.30L220.45-22.30Q218.37-18.75 217.18-15.14L217.18-15.14L217.18-15.14Q216.00-11.52 214.66-6.40L214.66-6.40L214.08-4.03L214.08-4.03Q213.12 1.02 211.20 1.02L211.20 1.02ZM238.98 0.64L238.98 0.64Q236.93 0.64 235.78-0.03L235.78-0.03L235.78-0.03Q234.62-0.70 233.92-2.11L233.92-2.11L233.92-2.11Q232.58-4.61 232.58-8.13L232.58-8.13L232.58-8.13Q232.58-14.27 234.43-19.81L234.43-19.81L234.43-19.81Q236.29-25.34 239.49-29.12L239.49-29.12L239.49-29.12Q242.56-32.70 246.21-32.70L246.21-32.70L246.21-32.70Q248.13-32.70 249.25-31.14L249.25-31.14L249.25-31.14Q250.37-29.57 250.37-27.33L250.37-27.33L250.37-27.33Q250.37-23.42 248.35-20.54L248.35-20.54L248.35-20.54Q246.34-17.66 242.94-15.74L242.94-15.74L242.94-15.74Q240.00-14.02 235.78-12.29L235.78-12.29L235.65-7.68L235.65-7.68Q235.65-2.30 238.91-2.30L238.91-2.30L238.91-2.30Q240.26-2.30 241.50-2.82L241.50-2.82L241.50-2.82Q242.75-3.33 244.22-4.22L244.22-4.22L244.22-4.22Q245.95-5.25 246.66-5.25L246.66-5.25L246.66-5.25Q247.74-5.25 247.74-4.10L247.74-4.10L247.74-4.10Q247.74-3.26 246.18-2.11L246.18-2.11L246.18-2.11Q244.61-0.96 242.50-0.16L242.50-0.16L242.50-0.16Q240.38 0.64 238.98 0.64L238.98 0.64ZM236.29-15.36L236.29-15.36Q240.58-17.09 242.82-18.43L242.82-18.43L242.82-18.43Q245.06-19.78 246.24-21.82L246.24-21.82L246.24-21.82Q247.42-23.87 247.42-27.20L247.42-27.20L247.42-27.20Q247.42-29.70 245.31-29.70L245.31-29.70L245.31-29.70Q243.46-29.70 240.96-26.30L240.96-26.30L240.96-26.30Q238.34-22.91 236.74-17.41L236.74-17.41L236.74-17.41Q236.29-15.87 236.29-15.36L236.29-15.36Z" fill="#ffffff"></path></g></g><style>text {
  font-size: 64px;
  font-family: Arial Black;
  dominant-baseline: central;
  text-anchor: middle;
}</style></svg>