<svg xmlns="http://www.w3.org/2000/svg" xmlns:xlink="http://www.w3.org/1999/xlink" viewBox="0 0 280 250" preserveAspectRatio="xMidYMid" style="display: block; shape-rendering: auto; background: rgba(253, 253, 253, 0);" width="280" height="250"><style type="text/css">
  .ld-text text {
    text-anchor: middle;
    dominant-baseline: middle;
    font-size:20px;
    opacity: 0;
    user-select: none;
    pointer-events: none;
  }
</style>
<g style="transform-origin:140px 125px;transform:scale(1)" class="ld-text">
<g transform="translate(140,125)">
  <g transform="scale(1.0000) translate(0,0)"><g class="path" style="opacity: 1; transform-origin: -102.44px 4.69px; transform: matrix3d(0.91, 0, 0, 0, 0, 0.91, 0, 0, 0, 0, 0.91, 0, 0, 0, 0, 1); animation: 1s linear -0.586667s infinite normal forwards running animate-nq4q5u6dq7r; transform-box: view-box;"><path d="M46.48-4.15L46.48-4.15Q40.16-6.87 32.76-6.87Q25.36-6.87 20.76-2.15Q16.16 2.57 16.16 10.17L16.16 10.17L14.40 10.17Q14.40 1.85 19.52-3.39Q24.64-8.63 32.64-8.63L32.64-8.63Q39.04-8.63 46.48-6.15L46.48-6.15Q55.04-3.03 65.04-3.03L65.04-3.03L65.04-1.35Q59.04-1.35 55.44-1.91L55.44-1.91Q53.60 7.05 50.32 20.65Q47.04 34.25 45.80 38.01Q44.56 41.77 42.40 45.77Q40.24 49.77 37.56 52.29Q34.88 54.81 30.84 56.45Q26.80 58.09 22.12 58.09Q17.44 58.09 13.28 56.33Q9.12 54.57 6.32 51.45L6.32 51.45Q1.52 45.93 1.52 38.09L1.52 38.09Q1.52 36.81 1.60 35.53L1.60 35.53L3.36 35.77Q3.28 36.89 3.28 38.01L3.28 38.01Q3.28 45.45 7.80 50.45Q12.32 55.45 20 55.45Q27.68 55.45 30.80 51.37Q33.92 47.29 36.76 35.69Q39.60 24.09 46.48-4.15" style="fill: rgb(81, 202, 204);" transform="translate(-135.720,-20.044)"></path></g><g class="path" style="opacity: 1; transform-origin: -62.64px 1.69px; transform: matrix3d(0.91, 0, 0, 0, 0, 0.91, 0, 0, 0, 0, 0.91, 0, 0, 0, 0, 1); animation: 1s linear -0.513333s infinite normal forwards running animate-nq4q5u6dq7r; transform-box: view-box;"><path d="M92-13.11L92-13.11L93.84-13.11Q93.84-8.55 90.44-0.27Q87.04 8.01 87.04 11.61L87.04 11.61L85.28 11.61Q85.28 8.01 86.40 5.09Q87.52 2.17 88.60-0.35Q89.68-2.87 90.16-4.23L90.16-4.23Q77.52-3.51 64.64 13.29L64.64 13.29Q61.76 16.81 59.36 20.17L59.36 20.17Q66.96 36.01 70.52 42.53Q74.08 49.05 76.48 51.53Q78.88 54.01 81.60 54.01Q84.32 54.01 86.28 52.45Q88.24 50.89 89.04 48.25L89.04 48.25L91.04 48.25Q88.48 56.57 78.48 56.57L78.48 56.57Q72.16 56.57 68.08 53.57Q64 50.57 61.12 44.49L61.12 44.49L52.32 25.93L63.76 11.05Q69.60 3.45 76.12-1.23Q82.64-5.91 90.80-6.15L90.80-6.15Q92-9.75 92-13.11" style="fill: rgb(157, 248, 113);" transform="translate(-135.720,-20.044)"></path></g><g class="path" style="opacity: 1; transform-origin: -36.64px 4.85px; transform: matrix3d(0.91, 0, 0, 0, 0, 0.91, 0, 0, 0, 0, 0.91, 0, 0, 0, 0, 1); animation: 1s linear -0.44s infinite normal forwards running animate-nq4q5u6dq7r; transform-box: view-box;"><path d="M105.76 37.93Q103.36 40.81 99.76 40.81Q96.16 40.81 94.12 38.97Q92.08 37.13 92.08 34.17L92.08 34.17Q92.08 33.13 93.36 25.45L93.36 25.45L96 11.13L92.64 11.13L92.80 9.69L96.24 9.69Q102.16 9.69 104.96 9.21L104.96 9.21L106.08 8.97L100.56 39.21Q102.96 38.97 104.56 36.97L104.56 36.97L105.76 37.93" style="fill: rgb(224, 255, 119);" transform="translate(-135.720,-20.044)"></path></g><g class="path" style="opacity: 1; transform-origin: -32.88px -22.87px; transform: matrix3d(0.91, 0, 0, 0, 0, 0.91, 0, 0, 0, 0, 0.91, 0, 0, 0, 0, 1); animation: 1s linear -0.366667s infinite normal forwards running animate-nq4q5u6dq7r; transform-box: view-box;"><path d="M98.72 1.29Q97.04-0.39 97.04-2.79Q97.04-5.19 98.72-6.91Q100.40-8.63 102.80-8.63Q105.20-8.63 106.92-6.91Q108.64-5.19 108.64-2.79Q108.64-0.39 106.92 1.29Q105.20 2.97 102.80 2.97Q100.40 2.97 98.72 1.29" style="fill: rgb(222, 157, 214);" transform="translate(-135.720,-20.044)"></path></g><g class="path" style="opacity: 1; transform-origin: -13.96px 3.01px; transform: matrix3d(0.91, 0, 0, 0, 0, 0.91, 0, 0, 0, 0, 0.91, 0, 0, 0, 0, 1); animation: 1s linear -0.293333s infinite normal forwards running animate-nq4q5u6dq7r; transform-box: view-box;"><path d="M117.84 38.73L117.84 38.73Q125.76 38.73 125.76 27.05L125.76 27.05Q125.76 24.17 124.92 20.25Q124.08 16.33 123.92 15.37L123.92 15.37Q119.04 20.41 112.96 21.45L112.96 21.45L112.96 19.53Q118.72 18.25 123.76 12.97L123.76 12.97L123.76 12.65Q123.76 10.73 124.32 8.89Q124.88 7.05 125.44 6.17L125.44 6.17L126 5.29L127.92 5.29Q127.92 8.81 129.04 11.73Q130.16 14.65 131.52 16.45Q132.88 18.25 134 21.17Q135.12 24.09 135.12 27.61L135.12 27.61Q135.12 33.29 130.84 37.05Q126.56 40.81 120.56 40.81Q114.56 40.81 111.48 38.09Q108.40 35.37 108.40 31.81Q108.40 28.25 110.16 26.69Q111.92 25.13 114.32 25.13Q116.72 25.13 118.28 26.69Q119.84 28.25 119.84 30.69Q119.84 33.13 118.32 34.81Q116.80 36.49 114.40 36.49L114.40 36.49Q113.36 36.49 112.24 36.17L112.24 36.17Q114 38.73 117.84 38.73" style="fill: rgb(255, 112, 142);" transform="translate(-135.720,-20.044)"></path></g><g class="path" style="opacity: 1; transform-origin: 21.24px -5.51px; transform: matrix3d(0.91, 0, 0, 0, 0, 0.91, 0, 0, 0, 0, 0.91, 0, 0, 0, 0, 1); animation: 1s linear -0.22s infinite normal forwards running animate-nq4q5u6dq7r; transform-box: view-box;"><path d="M169.76 39.21L169.76 39.21Q171.68 39.21 173.76 36.97L173.76 36.97L174.96 37.93Q174.40 39.05 172.48 39.93Q170.56 40.81 168.24 40.81L168.24 40.81Q160.96 40.81 160.96 34.25L160.96 34.25Q160.96 31.45 162.40 24.25Q163.84 17.05 163.84 14.81L163.84 14.81Q163.84 11.37 160.56 11.37L160.56 11.37Q157.84 11.37 155.32 15.05Q152.80 18.73 151.20 25.05L151.20 25.05L148.56 40.09L138.96 40.09L147.84-10.15Q145.44-9.91 143.84-7.91L143.84-7.91L142.64-8.87Q145.04-11.75 148.68-11.75Q152.32-11.75 154.32-9.91Q156.32-8.07 156.32-4.71L156.32-4.71Q156.32-4.07 156.16-2.63L156.16-2.63L152.80 16.33Q156.08 8.97 162.96 8.97L162.96 8.97Q167.68 8.97 170.32 11.65Q172.96 14.33 172.96 19.05L172.96 19.05Q172.96 21.53 171.44 28.61Q169.92 35.69 169.76 39.21" style="fill: rgb(81, 202, 204);" transform="translate(-135.720,-20.044)"></path></g><g class="path" style="opacity: 1; transform-origin: 58.68px 4.85px; transform: matrix3d(0.91, 0, 0, 0, 0, 0.91, 0, 0, 0, 0, 0.91, 0, 0, 0, 0, 1); animation: 1s linear -0.146667s infinite normal forwards running animate-nq4q5u6dq7r; transform-box: view-box;"><path d="M191.28 40.81Q185.12 40.81 181.92 37.73Q178.72 34.65 178.72 29.97Q178.72 25.29 179.56 21.97Q180.40 18.65 182.32 15.57Q184.24 12.49 188.12 10.73Q192 8.97 197.80 8.97Q203.60 8.97 206.84 12.05Q210.08 15.13 210.08 20.49L210.08 20.49Q210.08 29.61 205.24 35.21Q200.40 40.81 191.28 40.81L191.28 40.81 zM187.76 32.57L187.76 32.57Q187.76 38.97 191.48 38.97Q195.20 38.97 198.12 32.53Q201.04 26.09 201.04 17.21L201.04 17.21Q201.04 10.49 197.40 10.49Q193.76 10.49 190.76 16.61Q187.76 22.73 187.76 32.57" style="fill: rgb(157, 248, 113);" transform="translate(-135.720,-20.044)"></path></g><g class="path" style="opacity: 1; transform-origin: 93.32px 4.49px; transform: matrix3d(0.91, 0, 0, 0, 0, 0.91, 0, 0, 0, 0, 0.91, 0, 0, 0, 0, 1); animation: 1s linear -0.0733333s infinite normal forwards running animate-nq4q5u6dq7r; transform-box: view-box;"><path d="M215.68 12.81L214.48 11.85Q216.88 8.97 220.52 8.97Q224.16 8.97 226.16 10.81Q228.16 12.65 228.16 16.01L228.16 16.01L228.16 16.49Q231.76 8.97 237.52 8.97L237.52 8.97Q243.68 8.97 243.68 15.37L243.68 15.37Q243.68 18.01 241.92 20.97Q240.16 23.93 238.40 26.61Q236.64 29.29 236.64 31.37L236.64 31.37L234.72 31.37Q234.72 28.41 238.16 23.37Q241.60 18.33 241.60 15.57Q241.60 12.81 240.52 11.81Q239.44 10.81 237.32 10.81Q235.20 10.81 233.16 12.65Q231.12 14.49 229.76 17.29L229.76 17.29Q227.60 21.45 226.88 24.09L226.88 24.09L226.88 24.17L224 40.09L214.40 40.09L219.68 10.57Q217.28 10.81 215.68 12.81L215.68 12.81" style="fill: rgb(224, 255, 119);" transform="translate(-135.720,-20.044)"></path></g><g class="path" style="opacity: 1; transform-origin: 123.4px 4.85px; transform: matrix3d(0.91, 0, 0, 0, 0, 0.91, 0, 0, 0, 0, 0.91, 0, 0, 0, 0, 1); animation: 1s linear 0s infinite normal forwards running animate-nq4q5u6dq7r; transform-box: view-box;"><path d="M262.64 8.97L262.64 8.97Q272.80 8.97 272.80 17.05L272.80 17.05Q272.80 22.09 268.04 24.69Q263.28 27.29 254.48 27.37L254.48 27.37Q254.32 30.25 254.32 31.93L254.32 31.93Q254.32 35.53 255.96 37.25Q257.60 38.97 260.08 38.97Q262.56 38.97 264.60 38.01Q266.64 37.05 267.84 35.73Q269.04 34.41 269.92 32.97L269.92 32.97Q271.52 30.33 271.52 29.61L271.52 29.61L272.96 30.25Q272.72 31.53 271.52 33.65Q270.32 35.77 268.88 37.13Q267.44 38.49 264.64 39.65Q261.84 40.81 258.40 40.81L258.40 40.81Q251.92 40.81 248.60 37.73Q245.28 34.65 245.28 29.29L245.28 29.29Q245.28 19.77 250 14.37Q254.72 8.97 262.64 8.97 zM270.80 17.05Q270.80 14.41 269.24 12.69Q267.68 10.97 264.60 10.97Q261.52 10.97 258.60 14.65Q255.68 18.33 254.72 25.53L254.72 25.53Q270.80 25.45 270.80 17.05L270.80 17.05" style="fill: rgb(222, 157, 214);" transform="translate(-135.720,-20.044)"></path></g></g><text dy="0.35em" fill="#d88c51" font-family="Sail" font-size="80">Kishore</text>
</g>
</g><style type="text/css">@keyframes animate-nq4q5u6dq7r { 0.00% {transform: translate(0.00px,0.00px) rotate(0.00deg) scale(0.91, 0.91) skew(0deg, 0.00deg) ;opacity: 1.00;}4.00% {transform: translate(0.00px,0.00px) rotate(0.00deg) scale(0.91, 0.91) ;}8.00% {animation-timing-function: cubic-bezier(0.69,0.60,0.35,0.27);transform: translate(0.00px,0.00px) rotate(0.00deg) scale(0.91, 0.91) ;}14.00% {transform: translate(0.00px,0.00px) rotate(0.00deg) scale(0.93, 0.93) ;}18.00% {transform: translate(0.00px,0.00px) rotate(0.00deg) scale(0.94, 0.94) ;}22.00% {animation-timing-function: cubic-bezier(0.67,0.66,0.34,0.33);transform: translate(0.00px,0.00px) rotate(0.00deg) scale(0.96, 0.96) ;}26.00% {transform: translate(0.00px,0.00px) rotate(0.00deg) scale(0.97, 0.97) ;}30.00% {transform: translate(0.00px,0.00px) rotate(0.00deg) scale(0.99, 0.99) ;}34.00% {animation-timing-function: cubic-bezier(0.65,0.71,0.32,0.38);transform: translate(0.00px,0.00px) rotate(0.00deg) scale(1.01, 1.01) ;}40.00% {animation-timing-function: cubic-bezier(0.64,0.74,0.31,0.41);transform: translate(0.00px,0.00px) rotate(0.00deg) scale(1.02, 1.02) ;}46.00% {animation-timing-function: cubic-bezier(0.60,0.91,0.23,0.63);transform: translate(0.00px,0.00px) rotate(0.00deg) scale(1.03, 1.03) ;}50.00% {transform: translate(0.00px,0.00px) rotate(0.00deg) scale(1.03, 1.03) ;}54.00% {transform: translate(0.00px,0.00px) rotate(0.00deg) scale(1.03, 1.03) ;}58.00% {animation-timing-function: cubic-bezier(0.69,0.60,0.35,0.27);transform: translate(0.00px,0.00px) rotate(0.00deg) scale(1.03, 1.03) ;}64.00% {transform: translate(0.00px,0.00px) rotate(0.00deg) scale(1.01, 1.01) ;}68.00% {transform: translate(0.00px,0.00px) rotate(0.00deg) scale(1.00, 1.00) ;}72.00% {animation-timing-function: cubic-bezier(0.67,0.66,0.34,0.33);transform: translate(0.00px,0.00px) rotate(0.00deg) scale(0.98, 0.98) ;}76.00% {animation-timing-function: cubic-bezier(0.66,0.68,0.33,0.35);transform: translate(0.00px,0.00px) rotate(0.00deg) scale(0.97, 0.97) ;}82.00% {animation-timing-function: cubic-bezier(0.65,0.71,0.32,0.38);transform: translate(0.00px,0.00px) rotate(0.00deg) scale(0.94, 0.94) ;}88.00% {animation-timing-function: cubic-bezier(0.65,0.73,0.31,0.40);transform: translate(0.00px,0.00px) rotate(0.00deg) scale(0.92, 0.92) ;}94.00% {animation-timing-function: cubic-bezier(0.63,0.80,0.28,0.48);transform: translate(0.00px,0.00px) rotate(0.00deg) scale(0.91, 0.91) ;}100.00% {animation-timing-function: cubic-bezier(0.63,0.80,0.28,0.48);transform: translate(0.00px,0.00px) rotate(0.00deg) scale(0.91, 0.91) ;} }</style><!-- [ldio] generated by https://loading.io --></svg>